<?xml version="1.0" encoding="UTF-8"?>
<!-- Generator: Adobe Illustrator 13.0.0, SVG Export Plug-In . SVG Version: 6.00 Build 14948)  -->
<!DOCTYPE svg PUBLIC "-//W3C//DTD SVG 1.0//EN" "http://www.w3.org/TR/2001/REC-SVG-20010904/DTD/svg10.dtd">
<svg version="1.0" id="svg2" sodipodi:version="0.32" sodipodi:docname="blackMasa.svg" inkscape:version="0.46" inkscape:output_extension="org.inkscape.output.svg.inkscape" xmlns:dc="http://purl.org/dc/elements/1.1/" xmlns:cc="http://creativecommons.org/ns#" xmlns:rdf="http://www.w3.org/1999/02/22-rdf-syntax-ns#" xmlns:svg="http://www.w3.org/2000/svg" xmlns:sodipodi="http://sodipodi.sourceforge.net/DTD/sodipodi-0.dtd" xmlns:inkscape="http://www.inkscape.org/namespaces/inkscape" xmlns="http://www.w3.org/2000/svg" xmlns:xlink="http://www.w3.org/1999/xlink" x="0px" y="0px" width="256px" height="256px" viewBox="0 0 256 256" enable-background="new 0 0 256 256" xml:space="preserve">
<defs>
	
	
		<inkscape:perspective id="perspective10" inkscape:persp3d-origin="372.04724 : 350.78739 : 1" inkscape:vp_z="744.09448 : 526.18109 : 1" inkscape:vp_y="0 : 1000 : 0" inkscape:vp_x="0 : 526.18109 : 1" sodipodi:type="inkscape:persp3d">
		</inkscape:perspective>
	
		<inkscape:perspective id="perspective2464" inkscape:persp3d-origin="372.04724 : 350.78739 : 1" inkscape:vp_z="744.09448 : 526.18109 : 1" inkscape:vp_y="0 : 1000 : 0" inkscape:vp_x="0 : 526.18109 : 1" sodipodi:type="inkscape:persp3d">
		</inkscape:perspective>
</defs>
<sodipodi:namedview id="base" inkscape:window-y="-8" inkscape:window-x="-8" inkscape:window-height="780" inkscape:window-width="1280" inkscape:current-layer="layer1" inkscape:document-units="px" inkscape:pageshadow="2" inkscape:pageopacity="0.0" showgrid="false" inkscape:cy="457.87242" inkscape:cx="-132.41276" inkscape:zoom="0.5" bordercolor="#666666" pagecolor="#ffffff" objecttolerance="10" guidetolerance="10" gridtolerance="10000" borderopacity="1.0">
	</sodipodi:namedview>
<circle fill="#FFFFFF" stroke="#000000" cx="126.834" cy="127.167" r="118"/>
<g id="layer1" transform="translate(803.844, -692.062)" inkscape:groupmode="layer" inkscape:label="Layer 1">
	<path id="path2511" d="M-675.851,692.063c-70.656,0-127.993,57.35-127.993,128.007c0,70.656,57.337,127.993,127.993,127.993   c70.657,0,128.007-57.337,128.007-127.993C-547.844,749.413-605.193,692.063-675.851,692.063z M-677.076,715.109   c58.283,0,105.593,47.311,105.593,105.592c0,16.921-2.895,31.766-9.961,45.783c-9.242-15.344-21.285-34.397-30.68-50.669   c-26.512-0.19-84.077-0.713-107.155-0.713c0,26.628,0.377,55.71,0.377,76.906c-9.426-0.138-25.978,0.212-35.391,0.135   c-17.877-18.916-27.451-44.738-27.3-72.8C-781.289,762.572-735.358,715.109-677.076,715.109z"/>
</g>
</svg>