<?xml version="1.0" encoding="iso-8859-1"?>
<!-- Generator: Adobe Illustrator 19.0.0, SVG Export Plug-In . SVG Version: 6.00 Build 0)  -->
<svg version="1.1" id="Layer_1" xmlns="http://www.w3.org/2000/svg" xmlns:xlink="http://www.w3.org/1999/xlink" x="0px" y="0px"
	 viewBox="0 0 512 512" style="enable-background:new 0 0 512 512;" xml:space="preserve">
<circle style="fill:#324A5E;" cx="256" cy="256" r="256"/>
<path style="fill:#2B3B4E;" d="M512,256c0-6.603-0.25-13.147-0.741-19.625L393.993,119.11L238.392,251.032L117.72,335.684
	L291.564,509.53C416.113,492.216,512,385.315,512,256z"/>
<polygon style="fill:#CFDBE6;" points="312.889,403.825 199.111,403.825 218.936,318.492 293.064,318.492 "/>
<polygon style="fill:#B8C9D9;" points="293.064,318.492 256,318.492 256,403.825 312.889,403.825 "/>
<path style="fill:#E6F3FF;" d="M381.988,341.333H130.01c-8.966,0-16.232-7.268-16.232-16.234V130.01
	c0-8.964,7.268-16.232,16.232-16.232h251.978c8.966,0,16.234,7.268,16.234,16.232v195.089
	C398.222,334.065,390.954,341.333,381.988,341.333z"/>
<path style="fill:#CFDBE6;" d="M381.988,113.778H256v227.556h125.988c8.966,0,16.234-7.268,16.234-16.234V130.012
	C398.222,121.046,390.954,113.778,381.988,113.778z"/>
<rect x="126.707" y="128.431" style="fill:#FC6F58;" width="258.586" height="162.047"/>
<rect x="256" y="128.431" style="fill:#F1543F;" width="129.293" height="162.047"/>
<circle style="fill:#6B7A87;" cx="256" cy="312.889" r="10.343"/>
<path style="fill:#4A6475;" d="M266.343,312.889c0-5.713-4.63-10.343-10.343-10.343v20.687
	C261.713,323.232,266.343,318.602,266.343,312.889z"/>
<path style="fill:#B8C9D9;" d="M312.027,405.98H199.973c-5.713,0-10.343-4.63-10.343-10.343l0,0c0-5.713,4.63-10.343,10.343-10.343
	h112.054c5.713,0,10.343,4.63,10.343,10.343l0,0C322.37,401.349,317.74,405.98,312.027,405.98z"/>
<path style="fill:#A1B5C4;" d="M312.027,385.293H256v20.687h56.027c5.713,0,10.343-4.63,10.343-10.343
	S317.74,385.293,312.027,385.293z"/>
<rect x="144.015" y="142.222" style="fill:#FFD15D;" width="223.987" height="56.923"/>
<rect x="256" y="142.222" style="fill:#F9B54C;" width="111.99" height="56.923"/>
<rect x="144.015" y="206.248" style="fill:#FFD15D;" width="73.425" height="70.434"/>
<rect x="221.143" y="206.248" style="fill:#B5F1F4;" width="146.842" height="70.434"/>
<rect x="256" y="206.248" style="fill:#84DBFF;" width="111.99" height="70.434"/>
<g>
</g>
<g>
</g>
<g>
</g>
<g>
</g>
<g>
</g>
<g>
</g>
<g>
</g>
<g>
</g>
<g>
</g>
<g>
</g>
<g>
</g>
<g>
</g>
<g>
</g>
<g>
</g>
<g>
</g>
</svg>
