<?xml version="1.0" encoding="iso-8859-1"?>
<!-- Generator: Adobe Illustrator 19.0.0, SVG Export Plug-In . SVG Version: 6.00 Build 0)  -->
<svg version="1.1" id="Layer_1" xmlns="http://www.w3.org/2000/svg" xmlns:xlink="http://www.w3.org/1999/xlink" x="0px" y="0px"
	 viewBox="0 0 504.517 504.517" style="enable-background:new 0 0 504.517 504.517;" xml:space="preserve">
<path style="fill:#E4E7E7;" d="M47.262,63.212h409.6v393.846h-409.6C47.262,457.058,47.262,63.212,47.262,63.212z"/>
<path style="fill:#CDCFCF;" d="M47.262,169.157h409.6v20.086h-409.6C47.262,189.243,47.262,169.157,47.262,169.157z"/>
<path style="fill:#E4E7E7;" d="M504.123,130.166l-40.172-39.385H39.778L0,130.166v26.388c0,7.089,5.908,12.997,13.391,12.997
	h477.735c7.483,0,13.391-5.908,13.391-12.997L504.123,130.166z"/>
<path style="fill:#CDCFCF;" d="M502.942,128.985l-38.991-38.203H39.778L1.182,128.985H502.942z"/>
<path style="fill:#CCD0D2;" d="M74.043,35.643h355.643l27.175,27.569h-409.6C47.262,63.212,74.043,35.643,74.043,35.643z"/>
<path style="fill:#2EA9D3;" d="M74.831,433.428h90.585V169.551H74.831V433.428z M192.985,457.058h118.154V169.551H192.985V457.058z
	 M338.708,169.551v263.877h90.585V169.551H338.708z M74.831,433.428h90.585V169.551H74.831V433.428z M192.985,457.058h118.154
	V169.551H192.985V457.058z M338.708,169.551v263.877h90.585V169.551H338.708z"/>
<path style="fill:#3DB39E;" d="M229.612,232.566h45.292c7.089,0,12.997,5.908,12.997,13.391v20.086
	c0,7.483-5.908,13.391-12.997,13.391h-45.292c-7.089,0-12.997-5.908-12.997-13.391v-20.086
	C216.615,238.474,222.523,232.566,229.612,232.566z"/>
<path style="fill:#E4E7E7;" d="M274.511,244.382c0.394,0,1.182,0.788,1.182,1.575v20.086c0,1.182-0.788,1.575-1.182,1.575h-44.898
	c-0.394,0-1.182-0.788-1.182-1.575v-20.086c0-1.182,0.788-1.575,1.182-1.575H274.511 M274.511,232.566h-44.898
	c-7.089,0-12.997,5.908-12.997,13.391v20.086c0,7.483,5.908,13.391,12.997,13.391h45.292c7.089,0,12.997-5.908,12.997-13.391
	v-20.086C287.508,238.474,281.6,232.566,274.511,232.566z"/>
<path style="fill:#2998BD;" d="M165.415,334.966h-35.446v-43.323H74.831v141.785h90.585v-98.462H165.415z M192.985,334.966h47.262
	v122.092h-47.262L192.985,334.966L192.985,334.966z M338.708,295.582h90.585v137.846h-90.585V295.582z M279.631,362.535h31.508
	v94.523h-31.508V362.535z"/>
<path style="fill:#3DB39E;" d="M395.815,410.585c6.302,0,12.209,1.969,17.329,5.514c3.545-21.662,22.449-37.809,45.292-37.809
	c25.206,0,46.08,20.086,46.08,45.292s-20.48,45.292-46.08,45.292h-62.228c-16.148,0-29.538-12.997-29.538-29.145
	C366.277,423.582,379.668,410.585,395.815,410.585z M108.308,410.585c-6.302,0-12.209,1.969-17.329,5.514
	c-3.545-21.662-22.449-37.809-45.292-37.809C20.48,378.289,0,398.769,0,423.582c0,25.206,20.48,45.292,46.08,45.292h62.228
	c16.148,0,29.538-12.997,29.538-29.145C137.846,423.582,124.455,410.585,108.308,410.585z"/>
<path style="fill:#37A18E;" d="M108.308,457.058H46.08c-23.237,0-42.535-17.329-45.292-39.385C0,419.643,0,421.612,0,423.582
	c0,25.206,20.48,45.292,46.08,45.292h62.228c16.148,0,29.538-12.997,29.538-29.145c0-1.969-0.394-3.938-0.788-5.908
	C134.302,447.212,122.486,457.058,108.308,457.058z M458.043,457.058h-62.228c-14.178,0-25.994-9.846-28.751-23.237
	c-0.394,1.969-0.788,3.938-0.788,5.908c0,16.148,13.391,29.145,29.538,29.145h62.228c25.206,0,46.08-20.086,46.08-45.292
	c0-1.969,0-3.938-0.394-5.908C500.578,439.729,481.674,457.058,458.043,457.058z"/>
<path style="fill:#2998BD;" d="M338.708,169.551h90.585v19.298h-90.585V169.551z M74.831,169.551h90.585v19.298H74.831V169.551z
	 M192.985,169.551h118.154v19.298H192.985V169.551z"/>
<path style="fill:#E2574C;" d="M463.951,90.782h-22.843l35.446,39.385v39.385h14.178c7.483,0,13.391-5.908,13.391-12.997v-26.388
	l-0.394-0.394C503.729,129.772,463.951,90.782,463.951,90.782z M133.514,128.985l15.754-38.203h-22.843l-20.086,38.203v40.566
	h27.175V128.985z M51.2,169.551h27.175v-39.385l27.963-39.385H79.951L51.2,130.166V169.551z M240.246,129.772l3.938-38.991h-27.569
	l-3.545,38.597v40.172h27.175L240.246,129.772L240.246,129.772z M188.652,169.157v-40.172l8.271-38.203h-25.6l-9.846,38.203v40.172
	H188.652z M397.785,169.551v-40.566l-20.086-37.809h-22.843l15.36,37.809v40.566H397.785z M452.923,169.551v-39.385l-28.751-39.385
	h-26.388l27.963,39.385v39.385H452.923z M13.391,169.551h14.178v-39.385l35.446-39.385H39.778L0,130.166v25.994
	C0,163.643,5.908,169.551,13.391,169.551z M291.052,169.551v-39.778l-3.545-38.991h-27.569l3.938,38.991v39.778H291.052z
	 M315.471,128.985v40.172h27.175v-40.172L332.8,90.782h-25.6L315.471,128.985z"/>
<path style="fill:#CB4E44;" d="M377.698,91.175h-22.843l15.36,37.809h27.175L377.698,91.175z M287.508,90.782h-27.569l3.938,38.203
	h27.175L287.508,90.782z M463.951,90.782h-22.843l34.265,38.203h27.569L463.951,90.782z M424.172,90.782h-26.388l26.782,38.203
	h27.175L424.172,90.782z M332.406,90.782H307.2l8.271,38.203h27.175L332.406,90.782z M161.477,128.985h27.175l8.271-38.203h-25.6
	L161.477,128.985z M106.338,90.782H79.951l-27.963,38.203h27.175L106.338,90.782z M213.071,128.985h27.175l3.938-38.203h-27.569
	L213.071,128.985z M1.182,128.985h27.569l34.265-38.203H39.778L1.182,128.985z M106.338,128.985h27.175l15.754-38.203h-22.843
	L106.338,128.985z"/>
<g>
</g>
<g>
</g>
<g>
</g>
<g>
</g>
<g>
</g>
<g>
</g>
<g>
</g>
<g>
</g>
<g>
</g>
<g>
</g>
<g>
</g>
<g>
</g>
<g>
</g>
<g>
</g>
<g>
</g>
</svg>
